# xmcd
#
# Track frame offsets:
#	150
#	2259
#	3559
#	4420
#	8161
#	13205
#	14773
#	17712
#	20444
#	25158
#	26187
#	28192
#	32111
#	33344
#	38309
#	39614
#	43641
#	44970
#	52006
#	53037
#	59207
#	61447
#	62694
#	66204
#	68046
#	70552
#	74044
#	76609
#	79362
#	81600
#
# Disc length: 1108 seconds
#
# Revision: 1
# Processed by: cddbd v1.5.2PL0 Copyright (c) Steve Scherf et al.
# Submitted via: audiograbber 1.83.01
#
DISCID=9d04521e
DTITLE=Kraetze - The Easter Noise Session
DYEAR=2003
DGENRE=Noise Grind
TTITLE0=Warte Nur Ein Weilchen
TTITLE1=Nevermind Anal Cunt, This Is Krätze
TTITLE2=A Tribute To Rex Gildo
TTITLE3=Godzilla Hält Die Welt In Atem
TTITLE4=Pc Punks Fuck Off
TTITLE5=Hate Part 1
TTITLE6=Kurt Is Dead
TTITLE7=Grüne Pest
TTITLE8=Wo Die Tannen Düster Rauschen
TTITLE9=B.S.E.
TTITLE10=Da Da Da(Hmer)
TTITLE11=Hinterfotzig
TTITLE12=Heidi
TTITLE13=Smoke, Grind, Sleep
TTITLE14=More Dead Cowboys
TTITLE15=Bunte Leichen
TTITLE16=Discops
TTITLE17=A Very Slow Song
TTITLE18=A Tribute To Britney
TTITLE19=Suicide Just Do It
TTITLE20=Hate Part 2
TTITLE21=Fritz Haarman Song
TTITLE22=Good Night Hc Pride
TTITLE23=Flugzeuge Im Bauch
TTITLE24=Gory Gory Hallelujah
TTITLE25=Oi Destroy
TTITLE26=27
TTITLE27=Maja
TTITLE28=U.S.A.
TTITLE29=Napalm
EXTD=
EXTT0=
EXTT1=
EXTT2=
EXTT3=
EXTT4=
EXTT5=
EXTT6=
EXTT7=
EXTT8=
EXTT9=
EXTT10=
EXTT11=
EXTT12=
EXTT13=
EXTT14=
EXTT15=
EXTT16=
EXTT17=
EXTT18=
EXTT19=
EXTT20=
EXTT21=
EXTT22=
EXTT23=
EXTT24=
EXTT25=
EXTT26=
EXTT27=
EXTT28=
EXTT29=
PLAYORDER=
